/* XPM */
static char *bitcoin32[] = {
/* columns rows colors chars-per-pixel */
"32 32 173 2 ",
"   c black",
".  c #0C0C0C",
"X  c #100000",
"o  c #190001",
"O  c #111111",
"+  c #1C1B1C",
"@  c #131C1B",
"#  c #261D1C",
"$  c #3A1D1A",
"%  c #172424",
"&  c #2C2C2C",
"*  c #222121",
"=  c #343433",
"-  c #3B3B3B",
";  c #40302E",
":  c #433E3E",
">  c #40403F",
",  c #444545",
"<  c #4B4B4B",
"1  c #494443",
"2  c #504F4F",
"3  c #584F4E",
"4  c #544543",
"5  c #545454",
"6  c #5B5A5A",
"7  c #775552",
"8  c #646464",
"9  c #686767",
"0  c #676867",
"q  c #676768",
"w  c #6C6B6B",
"e  c #706868",
"r  c #786262",
"t  c #6F706F",
"y  c #70706F",
"u  c #676F70",
"i  c #6D787A",
"p  c #747474",
"a  c #787877",
"s  c #787778",
"d  c #7B7B7B",
"f  c #757879",
"g  c #B0625C",
"h  c #837F7F",
"j  c #897371",
"k  c #937876",
"l  c #A86A64",
"z  c #7F807F",
"x  c #80807F",
"c  c #29B4BE",
"v  c #669CA2",
"b  c #53A2AA",
"n  c #5EA8B0",
"m  c #43B2BC",
"M  c #5CB1B9",
"N  c #63A8AF",
"B  c #74A8AD",
"V  c #6FAEB3",
"C  c #6BB5BC",
"Z  c #1EBFCE",
"A  c #27BECB",
"S  c #37BBC7",
"D  c #44BAC4",
"F  c #56BCC5",
"G  c #0CC2C8",
"H  c #0DCBDB",
"J  c #17CADA",
"K  c #0DD0DF",
"L  c #3BC1CD",
"P  c #2FC9D7",
"I  c #24CCDB",
"U  c #36C6D4",
"Y  c #08CFE1",
"T  c #0CD2E4",
"R  c #00D6EA",
"E  c #0DD5E8",
"W  c #00D9EF",
"Q  c #0EDAEE",
"!  c #06D2E4",
"~  c #16D2E4",
"^  c #12DAEC",
"/  c #18D1E2",
"(  c #00DEF4",
")  c #24D7E6",
"_  c #0AE0EC",
"`  c #00E0F6",
"'  c #0CE2F4",
"]  c #00E5FC",
"[  c #00ECFF",
"{  c #00F2FF",
"}  c #1EFFFF",
"|  c #32EBF9",
" . c #6FC2CA",
".. c #848484",
"X. c #8A8484",
"o. c #808889",
"O. c #8C8B8C",
"+. c #938D8C",
"@. c #938887",
"#. c #8F908F",
"$. c #9A908F",
"%. c #8C9292",
"&. c #8D9C9D",
"*. c #959594",
"=. c #9A9696",
"-. c #979798",
";. c #989798",
":. c #959999",
">. c #9B9C9C",
",. c #A48C8A",
"<. c #AD8D8A",
"1. c #A68886",
"2. c #BC8D88",
"3. c #A0908E",
"4. c #B4918D",
"5. c #AC9997",
"6. c #A49D9D",
"7. c #AD9C9A",
"8. c #A49392",
"9. c #BB9B97",
"0. c #B29C9B",
"q. c #B89895",
"w. c #A0A09F",
"e. c #989FA0",
"r. c #959FA2",
"t. c #A09FA0",
"y. c #8FA5A7",
"u. c #81A7AB",
"i. c #9FA1A1",
"p. c #93A5A7",
"a. c #84B3B7",
"s. c #8AB2B5",
"d. c #9BB2B4",
"f. c #A4A4A4",
"g. c #ABA3A3",
"h. c #AEA8A7",
"j. c #A4AAAB",
"k. c #ABABAB",
"l. c #B3A5A3",
"z. c #BEA5A2",
"x. c #B2AEAE",
"c. c #B9ACAB",
"v. c #BCA8A6",
"b. c #AFAFB0",
"n. c #AEB3B4",
"m. c #B4B4B3",
"M. c #B8B7B8",
"N. c #B4B9B9",
"B. c #BCBCBC",
"V. c #BBB5B4",
"C. c #C28B86",
"Z. c #C4938E",
"A. c #D2938D",
"S. c #C39A96",
"D. c #C79C98",
"F. c #D39690",
"G. c #C4A29F",
"H. c #C8A8A5",
"J. c #D7AFAB",
"K. c #D4B1AD",
"L. c #C3B4B2",
"P. c #CEBEBD",
"I. c #D6B5B2",
"U. c #CEC0BF",
"Y. c #C2C3C3",
"T. c #CCCCCC",
"R. c #D0CECE",
"E. c #D4D3D3",
"W. c #DBDBDC",
"Q. c #E4CCCC",
"!. c #E3DBDC",
"~. c #E4E1E1",
"^. c None",
/* pixels */
"^.^.^.^.^.^.^.^.^.^.^.^.^.^.^.^.^.^.^.^.^.^.^.^.^.^.^.^.^.^.^.^.",
"^.^.^.^.^.^.^.^.^.^.^.^.O...d s p f f s o.^.^.^.^.^.^.^.^.^.^.^.",
"^.^.^.^.^.^.^.^.^.-.z a s ....*.*.O...d p 0 f ^.^.^.^.^.^.^.^.^.",
"^.^.^.^.^.^.^.^...p z #.;.>.>.;.>.>.6.f.g.=.x y p ^.^.^.^.^.^.^.",
"^.^.^.^.^.^.f.p a #.;.:.>.>.>.>.>.e.i.w.>.6.k.f.p 0 ^.^.^.^.^.^.",
"^.^.^.^.^.;.0 d ;.;.>.>.w.6.7.7.0.0.g.f.>.e.>.j.k.s w ^.^.^.^.^.",
"^.^.^.^.k.0 ..>.-.;.7.Z.4.8.:.&.&.:.6.9.S.0.f.f.f.m.d p ^.^.^.^.",
"^.^.^.^.t d -.:.5.2.:.n S H R ! ! R T L M r.D.H.i.i.k.p 8 ^.^.^.",
"^.^.^.O.y %.=.C.%.m R ] ` E P ~ ^ P ~ ( [ ( L p.Z.7.j.-.d ^.^.^.",
"^.^.^.p o.z.D.b W { )  .d.v.A.A E Z.5.p.C I [ ] D 9.S.j.v > ^.^.",
"^.^.*.u 9.H.A { Q a.H.D.H.Y.K.J ] l.v.z.D.S.u.J { ~ >.q.+.p ^.^.",
"^.^.z k f.K { L <.Z.V.b.>.;.@.v N +.*.>.j.x.D.S.F ] ` :.S.+.= ^.",
"^.f.h 5.c Q F C.5.n.>...s e i l g f p s X.-.N.V.A.B ] ] s.1.< ^.",
"^.O.*.j.f r k h.j...8 8 d O.,.m S $.O.s 8 0 ..n.n.A.V ^ s.1.5 ^.",
"^.O.o.g.g.e 6 z f 5 9 *.j.m.J./ ] L.c.f.;.w 2 9 k.M.0.6.0.e.8 ^.",
"^.O.s >.>.i.6 2 < w f.M.Y.k.<.Z E $.l.Y.B.f...5 2 i.x.6.i.f.8 ^.",
"^.#.p #.*.f.f.> 5 M.Y.k.a < $ J ^ ; 3 d k.W.;.- - ;.n.>.f.w.8 ^.",
"^.z a O.;.*.k.-.;.T.j.> O = 7 I ^ 4 # + 5 O.= * ;.Y.f.f.k.>.8 ^.",
"^.0 a O.-.;.>.k.B.o.+ # w h.K.I ' v.+., . + . O.T.f.k.f.b.;.6 ^.",
"^.^.d x ;.;.i.f.M.s   @ h.~.I.) ' P.!.Y.6   f E.f.f.g.k.k.;.5 ^.",
"^.^.s f >.*.>.f.6.T.d   * -.6 % @ - ..E.Y...M.m.f.j.f.k.>.i.= ^.",
"^.^.O.a %.-.>.h.f.f.E.8       X o     w U.Y.k.f.x.f.f.k.-.O.^.^.",
"^.^.^.O.p f.:.f.f.f.m.W.<   7 | } j   & T.k.k.j.k.x.f.f.f.0 ^.^.",
"^.^.^.>.d X.f.>.f.f.f.M.B.X.Q.c G !.X.f.N.k.k.k.f.k.f...;.^.^.^.",
"^.^.^.^.f.p *.>.>.f.f.f.x.E.N.    f.T.M.f.f.k.f.>.f...-.< ^.^.^.",
"^.^.^.^.^.>.q O.-.-.>.f.f.k.B.1 : k.k.f.f.f.f.6.-.p O.8 ^.^.^.^.",
"^.^.^.^.^.f ..0 f O.-.-.f.f.h.B.U.i.>.w.>.;.>.-.t d 8 ^.^.^.^.^.",
"^.^.^.^.^.^.1 f w 0 a #.;.-.i.-.>.:.-.*.*.O.s f ..5 ^.^.^.^.^.^.",
"^.^.^.^.^.^.^.^.6 w a s p x x ..o.....s p p p 0 = ^.^.^.^.^.^.^.",
"^.^.^.^.^.^.^.^.^.^.5 0 d f f d s d d d w 6 - ^.^.^.^.^.^.^.^.^.",
"^.^.^.^.^.^.^.^.^.^.^.^.& 1 5 6 6 5 < = + ^.^.^.^.^.^.^.^.^.^.^.",
"^.^.^.^.^.^.^.^.^.^.^.^.^.^.^.^.^.^.^.^.^.^.^.^.^.^.^.^.^.^.^.^."
};
