/* XPM */
static char *bitcoin16[] = {
/* columns rows colors chars-per-pixel */
"16 16 175 2 ",
"   c black",
".  c #0C0C0D",
"X  c #29201F",
"o  c #0E2C2C",
"O  c #272727",
"+  c #2D2C2C",
"@  c #313131",
"#  c #353535",
"$  c #4B201D",
"%  c #562E2B",
"&  c #283F40",
"*  c #454344",
"=  c #434647",
"-  c #494848",
";  c #4F5858",
":  c #535353",
">  c #644A49",
",  c #6C4F4D",
"<  c #795958",
"1  c #74605E",
"2  c #575F60",
"3  c #626363",
"4  c #666565",
"5  c #656566",
"6  c #646C6C",
"7  c #686969",
"8  c #6A6A6B",
"9  c #6E6D6D",
"0  c #716F6E",
"q  c #6F7677",
"w  c #737372",
"e  c #727273",
"r  c gray46",
"t  c #747777",
"y  c #777676",
"u  c #7B7373",
"i  c #757778",
"p  c #777F7F",
"a  c gray47",
"s  c #797A7B",
"d  c #7B7B7A",
"f  c #7B7B7B",
"g  c #7B7D7C",
"h  c #7B7D7D",
"j  c gray49",
"k  c #7E7E7E",
"l  c gray50",
"z  c #8D6F6B",
"x  c #967D7A",
"c  c #967D7B",
"v  c #947E7C",
"b  c #A1716E",
"n  c #7D807F",
"m  c #D0857E",
"M  c #277E82",
"N  c #2D9597",
"B  c #2EA4AE",
"V  c #34A2AA",
"C  c #25A8B4",
"Z  c #7E8080",
"A  c #7B8384",
"S  c #6F9B9F",
"D  c #7D9DA1",
"F  c #70BABF",
"G  c #3CB9C4",
"H  c #3EB8C4",
"J  c #42BBC6",
"K  c #46BDC7",
"L  c #2CC9D7",
"P  c #2ACEDB",
"I  c #36C4D1",
"U  c #04DCEF",
"Y  c #11DAEC",
"T  c #1CD9EA",
"R  c #1CDBEC",
"E  c #2DD1E1",
"W  c #2ED5E7",
"Q  c #0EE5F5",
"!  c #42C1CC",
"~  c #53C6D1",
"^  c #61C1CA",
"/  c #6DC3CA",
"(  c #6FC5CD",
")  c #7DC6CA",
"_  c #69CBD4",
"`  c #76DAE3",
"'  c #808282",
"]  c gray51",
"[  c #838383",
"{  c #838585",
"}  c #868687",
"|  c #878788",
" . c #848888",
".. c #878989",
"X. c #848E8F",
"o. c #888A8B",
"O. c #8B8C8C",
"+. c gray55",
"@. c #8C8D8F",
"#. c gray56",
"$. c #859192",
"%. c #8D9596",
"&. c #829B9D",
"*. c #929292",
"=. c #949392",
"-. c #949393",
";. c #939595",
":. c #969595",
">. c #979696",
",. c #969797",
"<. c #979797",
"1. c #999695",
"2. c #9A999A",
"3. c #9B9B9B",
"4. c #989D9D",
"5. c #9A9C9C",
"6. c gray61",
"7. c #A68380",
"8. c #A88583",
"9. c #BD938E",
"0. c #A09595",
"q. c #AB9693",
"w. c #BA9391",
"e. c #BF9692",
"r. c #BBA29F",
"t. c #81A5A6",
"y. c #83A4A9",
"u. c #83ABAF",
"i. c #9FA2A2",
"p. c #9DA5A6",
"a. c #95AEAF",
"s. c gray64",
"d. c #A2A4A5",
"f. c #A4A4A4",
"g. c gray65",
"h. c #ADA4A4",
"j. c #A3A8A9",
"k. c #A6A8A8",
"l. c #A7A8A8",
"z. c #A9A9A9",
"x. c #A8AAAA",
"c. c #ABADAD",
"v. c #ACACAC",
"b. c #ADACAD",
"n. c gray68",
"m. c #B0A9A8",
"M. c #AFB0B0",
"N. c #B2B2B2",
"B. c gray71",
"V. c #B2B8B9",
"C. c #BABABB",
"Z. c #BBBBBB",
"A. c gray74",
"S. c #BEBEBF",
"D. c #C98E89",
"F. c #DA8F88",
"G. c #C09794",
"H. c #C19794",
"J. c #CE9691",
"K. c #C79E9A",
"L. c #C69E9C",
"P. c #D8A39E",
"I. c #C4A6A4",
"U. c #C8A9A6",
"Y. c #C0ADAB",
"T. c #D6A9A3",
"R. c #D7A8A4",
"E. c #CBB0AC",
"W. c #C0BAB9",
"Q. c #C0C1C1",
"!. c #CACACA",
"~. c #CBCCCD",
"^. c #E0DDDE",
"/. c #E9E7E7",
"(. c None",
/* pixels */
"(.(.(.(.(.(.-.+.} ..(.(.(.(.(.(.",
"(.(.(.(.#.n { O.+.o.o.a (.(.(.(.",
"(.(.(.t ' q.G.e.G.K.h.h...(.(.(.",
"(.(.p x 9.y.H J K ! u.K.U.A (.(.",
"(.j.b p.L W _ T Y ^ E P a.P.= (.",
"(.x F Q ( E.F.D S m I.) U / z (.",
"(.0.V t.D.0 h X.$.Z 9 J.V.R &.1 ",
"(.4.8.> ; i.R.G I R.x.2 v Y.%.k ",
"(.d v.s ,.k.% C C $ ;.* i W.1.h ",
"(.e ,.S.s.  7.` ~ w.. 4 !.n.1.t ",
"(.t -.g.C.3 O # o u S.B.v.N.' (.",
"(.t +.s.b.~.< M N , Q.N.v.Z.: (.",
"(.(.d =.6.g./.q 6 ^.l.x.s.k (.(.",
"(.(.(.7 k ,.i.m.h.2.3.2.e (.(.(.",
"(.(.(.(.+ 4 k +.*.' 7 - (.(.(.(.",
"(.(.(.(.(.(.(.@ # O (.(.(.(.(.(."
};
