/* XPM */
static char *bitcoin64[] = {
/* columns rows colors chars-per-pixel */
"64 64 215 2 ",
"   c #010101",
".  c #0A0404",
"X  c #0C0B0B",
"o  c #130201",
"O  c #170807",
"+  c #141414",
"@  c #151A1B",
"#  c #1C1C1C",
"$  c #210000",
"%  c #2F1C1A",
"&  c #1F201F",
"*  c #242424",
"=  c #2B2C2B",
"-  c #333333",
";  c #3B3B3B",
":  c #383838",
">  c #3B2422",
",  c #473B3A",
"<  c #56312E",
"1  c #403F40",
"2  c #0E4E53",
"3  c #284E51",
"4  c #00606B",
"5  c #434343",
"6  c #484645",
"7  c #4C4C4C",
"8  c #484847",
"9  c #52504F",
"0  c #545353",
"q  c #585857",
"w  c #5C5C5C",
"e  c #585858",
"r  c #5B4442",
"t  c #6C5351",
"y  c #5F5F60",
"u  c #605F60",
"i  c #636363",
"p  c #6C6B6B",
"a  c #686767",
"s  c #716F6F",
"d  c #6F6F70",
"f  c #737373",
"g  c #777877",
"h  c #767A7A",
"j  c #7C7C7C",
"k  c #787778",
"l  c #6F7170",
"z  c #8A6966",
"x  c #99706C",
"c  c #807F7F",
"v  c #8A7977",
"b  c #997876",
"n  c #A17F7C",
"m  c #7F807F",
"M  c #88807F",
"N  c #A2807D",
"B  c #807F80",
"V  c #2A9CA6",
"C  c #3B9CA5",
"Z  c #0DA2B0",
"A  c #2EA8B3",
"S  c #57989F",
"D  c #538F95",
"F  c #7A8586",
"G  c #679599",
"H  c #7C9B9E",
"J  c #589CA2",
"K  c #4C9EA6",
"L  c #7E9EA1",
"P  c #4EA5AD",
"I  c #46A4AC",
"U  c #53A8AF",
"Y  c #4CABB3",
"T  c #5AADB5",
"R  c #52ACB4",
"E  c #47B3BC",
"W  c #5CB4BC",
"Q  c #54B4BD",
"!  c #69A7AD",
"~  c #77A3A7",
"^  c #03B7C9",
"/  c #1ABAC8",
"(  c #00BCD0",
")  c #2CB9C6",
"_  c #24BCCA",
"`  c #24BAC7",
"'  c #33BECA",
"]  c #36B9C4",
"[  c #45BAC5",
"{  c #5DBEC6",
"}  c #04C2D3",
"|  c #01CADD",
" . c #07C6D7",
".. c #1BC5D5",
"X. c #17C8D9",
"o. c #39C2CE",
"O. c #2CC5D3",
"+. c #28CAD8",
"@. c #33C5D2",
"#. c #33CBD9",
"$. c #28C0CE",
"%. c #01CEE2",
"&. c #10CFE0",
"*. c #00D2E6",
"=. c #09D3E6",
"-. c #00D4E9",
";. c #0DD6E9",
":. c #02DAEE",
">. c #0CDAED",
",. c #13D4E5",
"<. c #1CD2E3",
"1. c #13D7E9",
"2. c #13D9EB",
"3. c #1BD8EA",
"4. c #01DDF1",
"5. c #09DEF2",
"6. c #13DFF1",
"7. c #2CD3E3",
"8. c #34DCE8",
"9. c #01E0F5",
"0. c #0CE3F6",
"q. c #00E6FC",
"w. c #01ECFF",
"e. c #0DE9FC",
"r. c #11E8FA",
"t. c #02F8FF",
"y. c #34E2ED",
"u. c #5BC2CB",
"i. c #40C6D2",
"p. c #6EC1C9",
"a. c #848383",
"s. c #87898A",
"d. c #8C8C8C",
"f. c #888888",
"g. c #928D8C",
"h. c #958180",
"j. c #8F908F",
"k. c #8F8F90",
"l. c #908F90",
"z. c #8F9091",
"x. c #85999A",
"c. c #949494",
"v. c #989696",
"b. c #979897",
"n. c #989897",
"m. c #989798",
"M. c #969A9A",
"N. c #9C9C9C",
"B. c #979798",
"V. c #96908F",
"C. c #B4918E",
"Z. c #BD928E",
"A. c #A39594",
"S. c #AB9492",
"D. c #AC9896",
"F. c #A29D9D",
"G. c #AD9D9C",
"H. c #B29693",
"J. c #BC9692",
"K. c #B49D9A",
"L. c #BC9E9B",
"P. c #BE9996",
"I. c #AF8F8B",
"U. c #9FA09F",
"Y. c #A1A09F",
"T. c #AFA19F",
"R. c #B4A09E",
"E. c #9F9FA0",
"W. c #889FA1",
"Q. c #A19FA0",
"!. c #85A2A5",
"~. c #9DA1A1",
"^. c #94A3A4",
"/. c #A4A4A4",
"(. c #AAA4A3",
"). c #A6A8A7",
"_. c #A9A8A7",
"`. c #A7A7A8",
"'. c #A6A9A9",
"]. c #ABABAB",
"[. c #A8A7A8",
"{. c #BCA3A1",
"}. c #B4ACAB",
"|. c #B5A2A1",
" X c #AFB0AF",
".X c #B6B0AF",
"XX c #ADB1B1",
"oX c #A0B7BA",
"OX c #B3B3B3",
"+X c #BBBBBB",
"@X c #B7B8B7",
"#X c #ABAFB0",
"$X c #C7918C",
"%X c #C29692",
"&X c #C59995",
"*X c #C99B97",
"=X c #D88C86",
"-X c #C4A19E",
";X c #CCA09C",
":X c #D3A29E",
">X c #C4A4A1",
",X c #C5ABA9",
"<X c #CBAAA7",
"1X c #DBAEA9",
"2X c #D6A8A4",
"3X c #C4B1AF",
"4X c #C6B9B7",
"5X c #D8B7B4",
"6X c #E2BCBA",
"7X c #C3C3C3",
"8X c #CACACA",
"9X c #D2D1D1",
"0X c #DAD9D9",
"qX c #F0D1CF",
"wX c None",
/* pixels */
"wXwXwXwXwXwXwXwXwXwXwXwXwXwXwXwXwXwXwXwXwXwXwXwXwXwXwXwXwXwXwXwXwXwXwXwXwXwXwXwXwXwXwXwXwXwXwXwXwXwXwXwXwXwXwXwXwXwXwXwXwXwXwXwX",
"wXwXwXwXwXwXwXwXwXwXwXwXwXwXwXwXwXwXwXwXwXwXwXwXwXwXwXwXwXwXwXwXwXwXwXwXwXwXwXwXwXwXwXwXwXwXwXwXwXwXwXwXwXwXwXwXwXwXwXwXwXwXwXwX",
"wXwXwXwXwXwXwXwXwXwXwXwXwXwXwXwXwXwXwXwXwXwXwXwXwX).N.c.k.a.j j g f f j a.k.E.].wXwXwXwXwXwXwXwXwXwXwXwXwXwXwXwXwXwXwXwXwXwXwXwX",
"wXwXwXwXwXwXwXwXwXwXwXwXwXwXwXwXwXwXwXwXwXwXN.c.f.k f f d a g f a i i a w e w w f d.).wXwXwXwXwXwXwXwXwXwXwXwXwXwXwXwXwXwXwXwXwX",
"wXwXwXwXwXwXwXwXwXwXwXwXwXwXwXwXwXwXwX).c.a.j g f g k a.a.d.c.n.n.n.n.m.c.d.j f w 0 w j n.wXwXwXwXwXwXwXwXwXwXwXwXwXwXwXwXwXwXwX",
"wXwXwXwXwXwXwXwXwXwXwXwXwXwXwXwXwX).c.a.j k k j f.g.c.n.M.c.c.n.N.c.B.m.B.c.n.'.F.d.p 0 q f B.wXwXwXwXwXwXwXwXwXwXwXwXwXwXwXwXwX",
"wXwXwXwXwXwXwXwXwXwXwXwXwXwXwXwXc.d.a.g g F d.m.c.c.c.c.n.m.B.c.N.n.c.m.N.n.B.N.B.N.).N.a.y e j n.wXwXwXwXwXwXwXwXwXwXwXwXwXwXwX",
"wXwXwXwXwXwXwXwXwXwXwXwXwXwX).d.d.k p M c.c.c.B.c.M.n.n.m.n.n.N.n.N.E.N.n.N.N.Q.N.N.N.N.'.].a.9 i c.wXwXwXwXwXwXwXwXwXwXwXwXwXwX",
"wXwXwXwXwXwXwXwXwXwXwXwXwX`.c.a.d k c.c.c.k.c.c.v.N.N.N.n.N.F.N.E.N.~./.n.~.)./.N.N.U.N.N.N.].].a 8 z.wXwXwXwXwXwXwXwXwXwXwXwXwX",
"wXwXwXwXwXwXwXwXwXwXwXwXc.d.g a a.c.d.c.c.c.M.n.N.N.N.N.E.~.N.N.N.E.N.N.~./.F.N.N.N.N.N.E.Q././.OXj ; k c.wXwXwXwXwXwXwXwXwXwXwX",
"wXwXwXwXwXwXwXwXwXwXwXc.d.g p d.c.k.c.n.n.N.n.N.N.N./.N.N.N.N.E.F./.N./.U./././.N.N./.N.N.Q./.F.N.].c.: k c.wXwXwXwXwXwXwXwXwXwX",
"wXwXwXwXwXwXwXwXwXwXc.d.p l c.c.c.c.m.n.N.n.N.E.N.N.N.N.~.N.E.N.N.~.N.E.N.Y./.N.F.E.N./.E.Q./././.N.]./.1 j a.wXwXwXwXwXwXwXwXwX",
"wXwXwXwXwXwXwXwXwXN.d.f p c.c.c.c.M.n.n.N.N.N.n.N.N.N.(.K.K.K.K.K.L.R.|.(.)._./.~././././.).).)./.N.b.OXN.- c.a.wXwXwXwXwXwXwXwX",
"wXwXwXwXwXwXwXwX).d.k p c.c.c.c.n.n.N.n.N.N./.G.L.J.H.A.c.x.H H H L x.M.A.K.-XL.K.)./.~./././.'./.N.N.~.OXk.- N.wXwXwXwXwXwXwXwX",
"wXwXwXwXwXwXwXwXd.a.a j.l.c.c.c.B.n.n.n.G.P.H.c.G I A / }  .| %.| | |  ./ ) E ! M.D.&X|./.'.'.`.)./.N.).N.OXa 8 ].wXwXwXwXwXwXwX",
"wXwXwXwXwXwXwXc.d.a f.c.c.c.c.n.M.N.K.%Xv.J A } *.:.4.0.2.1.1.1.2.2.1.2.5.:.:.-.| ` T M.&X>X].~./.F.M.).E.n.OX5 p a.wXwXwXwXwXwX",
"wXwXwXwXwXwX/.c.d k m.c.c.c.B.M.K.J.s.C ( *.4.2.3.<.;.:.:.4.>.<.<.1.4.4.4.>.1.<.1.4.:.| ] !.&X-X/.~.N./.N.N.N.n.- N.wXwXwXwXwXwX",
"wXwXwXwXwXwXn.j p B.c.l.c.c.m.J.g.C } 4.0.7.1.:.4.4.&.+.' W ' =.=...{ [ O.X.-.4.:.1.<.1.4.*.) !.%XK.N.)././.n.XXw 0 n.wXwXwXwXwX",
"wXwXwXwXwX/.c.d a.B.d.N.~.{.H.D ^ 4.6.<.=.:.*.+.Q ~ E.D.J.=XJ -.4.@.=XP.D.N.!.W o.=.4.:.<.,.4.*.E D.J.]././.n.N./.- c.wXwXwXwXwX",
"wXwXwXwXwXN.c p B.c.N.#X5XA.A %.5.7.=.4.&.u.oX,X1X<X.X}.].>XP *.4.@.D.Q.(.|.L.&XL.~.W ..:.:.<.1.4. .~ :X(.~.N.c.].w 0 c.wXwXwXwX",
"wXwXwXwX].c.p m c.m.@X1Xx.^ 4.3.,.4.,.p..X1X<XOXXX@X@X@X@X5XR %.:.O.K.Q.)././././.R.:XK.! X.:.;.<.5.:.Q Z.K.M.v.m.n.; c.wXwXwXwX",
"wXwXwXwXF.a.p c.d.[.1XG ^ 9.7.:.4.[ D.2X3X`.M.N.c.E.@X#XOX5XQ 4.w.7.{.(././././.E./.'.}.&XH.T %.4.<.2.4.) J.S.M.c.].0 p k wXwXwX",
"wXwXwXwX/.f f c.V.*XS | 0.<.4.;.!.$XD.M.].).).[.].OXOX[.N.I.J ..+.[ A.N./.).].'./.~./.).XX(.*XN._ 4.1.<.9...S.H.M.E.k 0 c.wXwXwX",
"wXwXwXQ.n.a F B.*XS | 6.<.4.+.S.Z.N.n./.). X@XOX/.c.f.B j h v n h.b j c a.f.d.N.].]././.`.].].>X&XY :.>.<.9...H.H.M.).9 k.wXwXwX",
"wXwXwX).a.p ].,XY :.w.4.q.' I.I.M.N.N.].@X#Xc.k f f k a.d.d.d.a.f.f.d.d.a.c k j a.c./.].].].[.#X}.:X~ %.5.<.4...S.S.].e F u wXwX",
"wXwXwX/.f a.4Xx.Z #.] _ [ J.S.N.N.N.'.+Xn.s p k a.d.a.a.j j v x x b j j c a.a.a.j k j g.@X+X/.).`./.&Xx.%.5.<.9.X.A.}.d p f.wXwX",
"wXwXwX).a d.#Xz.z z b z z g.].N.N.XX'.k i k a.B j f f f m B F J J G c c g s g j B B k s j `.@X).)./.E.2X^.| 5.4.@.A.(.d.i c.wXwX",
"wXwXa.F.k N./.Q.N.s s c g p c.].].c.i i j j f p s B c.m./.>XE q.w.7.{.(.N.c.a.d a f j j p p c.@X].Q.'.~.:Xx.*.i.%XD.N.n.q v.wXwX",
"wXwXc.c.d.c.n.N.].N.u p k p a /.g.0 p k f i a f.N.].OX)./.<XP *.:.#.R.(.[.].].N.f.a i d g s w a.@X].[./.`.{.~ G.G.~.N.U.0 n.wXwX",
"wXwXk.c.p f.n./.N./.c.q a d a a w p f a q j /.OX]._.)./.Q.>XU *.4.@.K.F./././.].@X@XB q u f p q k @X]./.]./.L.(.~.N.n.OXi d.= wX",
"wXwXN.d.y c.E.n.c.c.[.d.9 i a i a p q q m.OX]./.].F./.'.XX5XU %.:.#.,X.X]././././.OXOXn.u 0 p a 0 k @XOX).N.~./.N.M./.@Xa c.- wX",
"wXwXn.d.i c.c.d.c.l.c.].a.6 w i i 7 q [.+XQ.n.Q./.OX@X].c.b C :.0._ v g./.@X@X[./.N.).@X].f w w u 8 j +X/./.F.N.N.).)./.w c.- wX",
"wXwXb.d.i d.d.c.n.m.N.m.OXB ; q 6 e ).@X].Q.Q.OX@Xc.p 0 8 < V e.r./ , , 0 a c.OX@X).).N.8X/.1 q w 1 u OX'.Q.Q./.N.).F.[.w c.- wX",
"wXwXc.j.i a.d.l.n.B.N.n.n.@Xf * 9 ]. X].]./.@XN.w : ; 7 0 < V e.r.` r 0 7 5 ; q n.7X[.+X[.; 6 q ; w OX].[././.N.N.'.).[.i c.= wX",
"wXwXa.N.a f d.c.N.c.n.N.N.).OXi c.OXN.'.OX@Xg = - 9 7 ; - > V e.r./ > , 7 7 7 : - p 8X+X: : 0 - 6 @X@X/.].).F./.N.[./.N.i [.* wX",
"wXwXk U.p f d.l.c.c.n.n.N.Q.Q.#X[.E.n.@X7X0 # 1 6 - = 9 d n Y :.9.O.t , * - 6 8 5 * i 0 = 7 - : ].@X].]./.]./.Q.F.'.[.c.i ].wXwX",
"wXwXwX).p a d.j.B.c.m.n.N./.N.Q.]./.].7X8 # 5 ; & 1 c.OX7X5XP %.:.#.3X(.a.7 # = 5 1 = - 6 = * Q.7XE./.}.`.'. X).N.].#Xa.p ).wXwX",
"wXwXwX/.p w c.c.B.c.N.n.N./.E.Q.].[.].8 + : - = q @X4X)./.>XP -.4.@.K.].+X7Xf.= + - - : = + v.8X)./.).[.].].[. X/./.OXf m Y.wXwX",
"wXwXwX/.a.0 c.c.c.l.n.n.N././.Q./.#XN.+ # - * = +X7XE././.L.P =.4.#.|.)./.[.8X@X7 X = = X a.8X].].[.[.[.).]././.[.n.].a c.g wXwX",
"wXwXwXc.n.0 c c.c.c.M.N.N./.N.Q./.N.OX/.X + = + 6 7XXX~.OX6Xu.t.t.y.5X4X]./.Q.@X9Xi     f 0X)./.].[.'.[././.[.).).N.N.i @X6 wXwX",
"wXwXwXp @Xa p c.c.c.n.n.N./.N./.[./.N.9Xc.  + *   7 9X8X_.v 3 2 2 3 9 v @X7X]./.@X0X7 6 7X@X@X/./.[.'.)././.[.]./.).j f @XwXwXwX",
"wXwXwXwXOXk e c.c.c.c.n.M.N.Q./.].Q.N.].9Xf   + #   i p +   o $ $ o     & d.9X].N.OX7X@X]./. X@X)./.[.).[.).).[.Q.[.i c.d.wXwXwX",
"wXwXwXwXd./.w a.c.d.B.N.c.Q.).).].Q.F.[.].8Xa   + @     . @ + o o O + +     k 9X/./.OXOX/.)./.].@X)./.)./././.).].g.i 7X8 wXwXwX",
"wXwXwXwXwX7Xp q N.c.B.n.n./.Q.)././.).).].@X8X0   X X + X     @ @ .   X + X   a.7X/./.XXOX/.[./.}.@X/.F./.Q././.@Xf m ].wXwXwXwX",
"wXwXwXwXwXN.N.7 f.N.B.N.M.N.Q.Y./.Q./.).].].@X8X1   X     r P :.9.' t X   +   : 7X}.].].#X X/.'./.]. X].].].N.Q.n.p 7Xw wXwXwXwX",
"wXwXwXwXwXy 7Xg e N.c.B.n.Q.N./.[.)././.).[.].+X8X=     a.qX{ 9.q.y.qX}.+   + ).7XXX#X}.[.].}.].'.).].].].).'.].a d.OXwXwXwXwXwX",
"wXwXwXwXwXwXn.].0 p n.N.n.n.N./.Y./.[././.).].].7X+X+ d 0X*XY t.t.8.R.0XU.  c.9X).].OX].].[.].].].]. X/.B.B.N.f.a 7X0 wXwXwXwXwX",
"wXwXwXwXwXwXwX@Xd.0 d.c.N.N.n.N.N.N./.].[.).].].].7X+X+X].,XT 4 4 A 4X(.@X].+X].)./.'.].].]./././.Q.Q. XN.c.d.9 '.d.wXwXwXwXwXwX",
"wXwXwXwXwXwXwXf.7Xg q B.B.n.N.N.N.N.Q.).].).).].].[.@XOXOX+X=     @ ].OX[.@X].].].].)./.OX].]././.Q.B.B.].M.0 a.].* wXwXwXwXwXwX",
"wXwXwXwXwXwXwXwXN.].a i c.c.c.c.n.N./.N.F././.).).Q.).].7X].        z.7X)././.[.].].)./.).)./.N.N.N.c.d.c.f p OX7 wXwXwXwXwXwXwX",
"wXwXwXwXwXwXwXwXwX[./.w a c.d.k.c.n.n.N.n.E./././.].).[.@X+X:     * }.].)./././.[././.N./.)./.v.c.c.l.g.w y XXy wXwXwXwXwXwXwXwX",
"wXwXwXwXwXwXwXwXwXq ].n.q w d.a.d.d.d.c.B.N.N./.).[.N.]. X XOXw 7 ].OXQ././././.).Q./.N.Q./.~.B.c.d.d.y w N.f . wXwXwXwXwXwXwXwX",
"wXwXwXwXwXwXwXwXwXwX0 /.z.w e j F a.d.l.c.m.n.N./.m.].].[.[.].7X8X}.~./././././.Q.Q.N.c.N.n.c.c.d.j q q N.f X wXwXwXwXwXwXwXwXwX",
"wXwXwXwXwXwXwXwXwXwXwX8 c.d.a 0 f a.a.a.d.c.c.c.v.[.].n.).[.N.Q.N.~./.~./.N.M.n.n.c.c.c.c.n.d.d.m 9 u A.d . wXwXwXwXwXwXwXwXwXwX",
"wXwXwXwXwXwXwXwXwXwXwXwX: j a.f 0 e g m a.f.d.d.N./.c.c./.).c.N.N.m.n.n.c.n.c.c.c.c.l.d.a.d.l.i 9 f N.u . wXwXwXwXwXwXwXwXwXwXwX",
"wXwXwXwXwXwXwXwXwXwXwXwXwXwXa j f w 0 y g M k c.N.f.d.c.n.c.c.c.c.c.c.c.c.l.c.d.d.d.a.a.a.p q w m z.3 wXwXwXwXwXwXwXwXwXwXwXwXwX",
"wXwXwXwXwXwXwXwXwXwXwXwXwXwXwX8 f k l i q i j d.k j a.c.d.a.f.d.d.d.d.d.f.f.f.a.M j g a 0 0 p z.f & wXwXwXwXwXwXwXwXwXwXwXwXwXwX",
"wXwXwXwXwXwXwXwXwXwXwXwXwXwXwXwX* 0 f k p p p w a f d.a.j c c F a.a.a.B B m k f p w e q a f.j 1   wXwXwXwXwXwXwXwXwXwXwXwXwXwXwX",
"wXwXwXwXwXwXwXwXwXwXwXwXwXwXwXwXwXwX= 7 l F s p p f i w a p p f f p d p a a i i i i f a.f 5 X wXwXwXwXwXwXwXwXwXwXwXwXwXwXwXwXwX",
"wXwXwXwXwXwXwXwXwXwXwXwXwXwXwXwXwXwXwXwX* 5 u k k g p p a p p p p a p p p p d k c k w : X wXwXwXwXwXwXwXwXwXwXwXwXwXwXwXwXwXwXwX",
"wXwXwXwXwXwXwXwXwXwXwXwXwXwXwXwXwXwXwXwXwXwXX = ; 0 p f j j j k j k j j j f a 9 - @   wXwXwXwXwXwXwXwXwXwXwXwXwXwXwXwXwXwXwXwXwX",
"wXwXwXwXwXwXwXwXwXwXwXwXwXwXwXwXwXwXwXwXwXwXwXwXwXwX+ * = - ; 8 5 5 ; - = # X wXwXwXwXwXwXwXwXwXwXwXwXwXwXwXwXwXwXwXwXwXwXwXwXwX",
"wXwXwXwXwXwXwXwXwXwXwXwXwXwXwXwXwXwXwXwXwXwXwXwXwXwXwXwXwXwXwXwXwXwXwXwXwXwXwXwXwXwXwXwXwXwXwXwXwXwXwXwXwXwXwXwXwXwXwXwXwXwXwXwX",
"wXwXwXwXwXwXwXwXwXwXwXwXwXwXwXwXwXwXwXwXwXwXwXwXwXwXwXwXwXwXwXwXwXwXwXwXwXwXwXwXwXwXwXwXwXwXwXwXwXwXwXwXwXwXwXwXwXwXwXwXwXwXwXwX"
};
